<?xml version="1.0" encoding="UTF-8" ?>
<!DOCTYPE svg PUBLIC "-//W3C//DTD SVG 1.1//EN" "http://www.w3.org/Graphics/SVG/1.1/DTD/svg11.dtd">
<svg width="250pt" height="250pt" viewBox="0 0 250 250" version="1.1" xmlns="http://www.w3.org/2000/svg">
<g id="#3b3b3b3c">
</g>
<g id="#404347ff">
<path fill="#404347" opacity="1.00" d=" M 85.05 23.39 C 98.28 20.83 111.45 17.92 124.78 15.86 C 128.03 24.13 129.14 33.14 132.79 41.23 C 138.77 42.30 144.82 43.19 150.67 44.98 C 156.61 38.31 162.06 31.20 168.38 24.87 C 179.83 31.96 190.92 39.63 201.94 47.38 C 198.12 55.55 193.40 63.24 189.03 71.11 C 192.97 76.05 196.58 81.27 199.43 86.92 C 201.87 86.44 204.37 86.44 206.82 86.01 C 211.04 95.80 214.38 106.10 215.12 116.80 C 215.38 121.20 216.49 125.48 217.34 129.79 C 214.33 130.61 211.34 131.50 208.32 132.29 C 208.09 137.51 206.91 142.60 205.71 147.67 C 205.57 148.80 204.91 150.17 205.74 151.17 C 208.09 153.45 210.63 155.49 213.10 157.62 C 209.79 163.24 207.04 169.16 203.77 174.79 C 199.64 181.91 193.69 187.67 188.31 193.83 L 187.91 194.28 C 185.14 192.53 182.28 190.92 179.44 189.30 C 174.33 193.49 168.86 197.26 162.99 200.30 C 163.11 203.31 163.33 206.32 163.79 209.31 C 159.99 209.73 156.15 210.10 152.51 211.33 C 142.08 214.92 130.97 215.97 119.99 216.11 L 119.23 216.13 C 118.81 213.86 118.12 211.65 117.62 209.40 C 111.10 209.30 104.93 206.66 98.49 206.32 C 96.40 208.03 94.77 210.23 93.06 212.31 C 84.73 208.52 76.34 204.58 69.12 198.88 C 64.50 195.35 60.52 191.09 56.55 186.88 C 57.75 184.62 58.96 182.37 60.14 180.10 C 55.89 174.84 52.18 169.15 48.88 163.25 C 46.30 163.63 43.70 163.75 41.10 164.00 C 38.96 158.29 36.80 152.56 35.46 146.59 C 33.34 138.10 33.30 129.31 32.37 120.66 L 32.32 120.07 C 35.10 119.45 37.84 118.65 40.55 117.77 C 40.82 111.97 42.29 106.35 43.66 100.74 C 44.54 98.27 41.81 96.77 40.49 95.13 C 43.58 87.67 46.85 80.19 51.61 73.60 C 55.58 67.90 60.45 62.90 65.41 58.06 L 65.82 57.66 C 67.36 58.67 68.93 59.64 70.51 60.59 C 75.55 56.38 81.10 52.83 86.86 49.69 C 86.00 40.95 85.08 32.18 85.05 23.39 M 118.40 56.39 C 111.62 57.35 104.91 58.95 98.55 61.49 C 82.03 68.45 68.45 82.03 61.49 98.55 C 56.63 111.19 54.20 125.23 57.42 138.59 C 60.63 156.37 71.29 172.65 86.30 182.70 C 96.10 189.93 108.17 193.37 120.13 194.81 C 130.12 195.86 140.14 193.69 149.59 190.59 C 167.65 184.05 182.56 169.51 189.79 151.74 C 194.31 139.55 196.70 126.12 193.75 113.25 C 190.98 97.05 182.14 81.94 169.29 71.70 C 155.29 60.11 136.43 54.52 118.40 56.39 Z" />
</g>
<g id="#383b40ff">
<path fill="#383b40" opacity="1.00" d=" M 47.45 48.09 C 53.65 51.01 59.72 54.22 65.41 58.06 C 60.45 62.90 55.58 67.90 51.61 73.60 C 46.85 80.19 43.58 87.67 40.49 95.13 C 35.02 90.96 29.81 86.45 24.90 81.63 C 32.04 70.20 39.63 59.06 47.45 48.09 Z" />
<path fill="#383b40" opacity="1.00" d=" M 206.82 86.01 C 213.45 86.16 219.99 84.55 226.63 85.05 C 229.21 98.27 231.97 111.46 234.23 124.75 C 228.66 126.62 223.00 128.21 217.34 129.79 C 216.49 125.48 215.38 121.20 215.12 116.80 C 214.38 106.10 211.04 95.80 206.82 86.01 Z" />
<path fill="#383b40" opacity="1.00" d=" M 15.87 125.26 C 21.25 123.33 26.72 121.60 32.37 120.66 C 33.30 129.31 33.34 138.10 35.46 146.59 C 36.80 152.56 38.96 158.29 41.10 164.00 C 35.26 163.63 29.26 166.18 23.56 164.47 C 20.50 151.52 18.16 138.38 15.87 125.26 Z" />
<path fill="#383b40" opacity="1.00" d=" M 213.10 157.62 C 217.23 161.05 221.34 164.51 225.13 168.31 C 218.03 179.75 210.43 190.90 202.57 201.83 C 197.63 199.52 192.66 197.16 188.31 193.83 C 193.69 187.67 199.64 181.91 203.77 174.79 C 207.04 169.16 209.79 163.24 213.10 157.62 Z" />
<path fill="#383b40" opacity="1.00" d=" M 48.17 202.52 C 50.61 197.12 53.52 191.96 56.55 186.88 C 60.52 191.09 64.50 195.35 69.12 198.88 C 76.34 204.58 84.73 208.52 93.06 212.31 C 89.33 216.62 85.76 221.08 81.69 225.09 C 70.25 217.97 59.10 210.39 48.17 202.52 Z" />
</g>
<g id="#4d4f54ff">
<path fill="#4d4f54" opacity="1.00" d=" M 118.40 56.39 C 136.43 54.52 155.29 60.11 169.29 71.70 C 182.14 81.94 190.98 97.05 193.75 113.25 C 196.70 126.12 194.31 139.55 189.79 151.74 C 182.56 169.51 167.65 184.05 149.59 190.59 C 140.14 193.69 130.12 195.86 120.13 194.81 C 108.17 193.37 96.10 189.93 86.30 182.70 C 71.29 172.65 60.63 156.37 57.42 138.59 C 54.20 125.23 56.63 111.19 61.49 98.55 C 68.45 82.03 82.03 68.45 98.55 61.49 C 104.91 58.95 111.62 57.35 118.40 56.39 M 117.38 79.46 C 104.79 81.76 92.86 89.12 86.18 100.19 C 78.51 112.01 76.66 127.36 81.29 140.66 C 84.65 150.24 90.87 159.04 99.58 164.44 C 111.49 172.41 127.13 174.42 140.66 169.71 C 150.24 166.35 159.04 160.13 164.43 151.42 C 172.56 139.29 174.49 123.29 169.45 109.59 C 166.02 100.31 159.91 91.81 151.42 86.57 C 141.51 79.95 129.10 77.43 117.38 79.46 Z" />
</g>
<g id="#5c5f63ff">
<path fill="#5c5f63" opacity="1.00" d=" M 117.38 79.46 C 129.10 77.43 141.51 79.95 151.42 86.57 C 159.91 91.81 166.02 100.31 169.45 109.59 C 174.49 123.29 172.56 139.29 164.43 151.42 C 159.04 160.13 150.24 166.35 140.66 169.71 C 127.13 174.42 111.49 172.41 99.58 164.44 C 90.87 159.04 84.65 150.24 81.29 140.66 C 76.66 127.36 78.51 112.01 86.18 100.19 C 92.86 89.12 104.79 81.76 117.38 79.46 M 121.35 107.24 C 111.11 109.45 104.00 121.22 107.70 131.21 C 110.61 140.66 121.79 146.77 131.21 143.29 C 140.38 140.46 146.47 129.84 143.54 120.55 C 141.07 111.27 130.75 104.79 121.35 107.24 Z" />
</g>
<g id="#686b6eff">
</g>
<g id="#393b40ff">
<path fill="#393b40" opacity="1.00" d=" M 152.51 211.33 C 156.15 210.10 159.99 209.73 163.79 209.31 C 164.19 214.86 165.11 220.37 165.10 225.95 C 152.02 229.31 138.66 231.61 125.31 233.59 C 123.18 227.88 121.14 222.11 119.99 216.11 C 130.97 215.97 142.08 214.92 152.51 211.33 Z" />
</g>
</svg>
