<?xml version="1.0" encoding="UTF-8" ?>
<!DOCTYPE svg PUBLIC "-//W3C//DTD SVG 1.1//EN" "http://www.w3.org/Graphics/SVG/1.1/DTD/svg11.dtd">
<svg width="250pt" height="250pt" viewBox="0 0 250 250" version="1.1" xmlns="http://www.w3.org/2000/svg">
<g id="#53585fff">
<path fill="#53585f" opacity="1.00" d=" M 74.25 69.06 C 76.40 68.92 78.55 68.85 80.70 68.82 C 81.03 73.41 81.57 77.99 81.99 82.57 C 80.66 82.83 79.34 83.09 78.01 83.36 C 78.39 86.15 78.78 88.94 79.18 91.73 C 78.09 91.54 76.99 91.38 75.90 91.24 C 76.71 94.55 77.89 97.78 78.41 101.16 C 78.71 103.67 76.54 105.88 74.09 106.06 C 74.43 93.73 74.18 81.39 74.25 69.06 Z" />
<path fill="#53585f" opacity="1.00" d=" M 84.05 68.90 C 114.20 68.74 144.35 68.78 174.50 68.88 C 174.93 84.87 174.54 100.89 174.69 116.89 C 175.72 124.49 181.17 131.12 180.44 139.00 C 180.30 152.50 180.60 165.99 180.27 179.48 C 155.52 179.88 130.76 179.62 106.00 179.67 C 93.63 179.56 81.25 179.90 68.88 179.49 C 68.71 165.99 68.89 152.49 68.78 138.99 C 68.20 131.68 72.90 125.49 74.45 118.57 C 76.56 122.98 77.35 127.96 79.74 132.23 C 82.12 133.71 85.41 132.76 88.15 133.03 C 91.80 133.00 95.44 132.96 99.09 132.88 C 96.76 115.57 94.01 98.31 90.74 81.16 C 89.14 81.26 87.54 81.35 85.95 81.45 C 85.10 77.30 84.44 73.11 84.05 68.90 M 167.29 81.19 C 165.34 85.19 164.66 89.64 163.65 93.93 C 162.14 93.80 160.62 93.67 159.11 93.54 C 157.28 99.53 156.70 105.95 153.78 111.56 C 153.36 109.39 153.02 107.21 152.74 105.02 C 147.24 104.48 141.83 107.03 136.37 105.65 C 129.28 104.04 122.39 101.22 115.04 100.96 C 110.74 100.71 106.50 101.59 102.28 102.29 C 103.04 105.92 104.32 109.42 104.94 113.08 C 105.52 119.77 105.13 126.59 103.19 133.05 C 118.43 132.84 133.66 133.05 148.90 132.94 C 153.84 133.04 158.79 133.12 163.73 132.84 C 166.30 120.62 169.61 108.55 171.93 96.28 C 170.40 95.78 168.87 95.28 167.35 94.79 C 168.06 90.58 169.63 86.51 169.87 82.23 C 169.27 81.24 168.41 80.90 167.29 81.19 M 142.52 157.64 C 139.51 159.68 136.68 162.99 137.31 166.90 C 137.50 173.06 145.84 176.14 150.50 172.58 C 155.25 170.06 155.27 162.84 151.64 159.36 C 149.53 156.52 145.56 157.12 142.52 157.64 M 101.43 158.40 C 95.59 160.92 94.76 170.48 100.88 173.12 C 106.92 176.94 115.07 169.69 112.74 163.20 C 111.74 158.34 105.57 156.35 101.43 158.40 Z" />
</g>
<g id="#4d7bbbff">
<path fill="#4d7bbb" opacity="1.00" d=" M 80.70 68.82 C 81.54 68.84 83.21 68.88 84.05 68.90 C 84.44 73.11 85.10 77.30 85.95 81.45 C 87.54 81.35 89.14 81.26 90.74 81.16 C 94.01 98.31 96.76 115.57 99.09 132.88 C 95.44 132.96 91.80 133.00 88.15 133.03 C 86.14 126.83 83.43 120.77 82.73 114.23 C 81.71 110.26 86.46 107.88 86.20 103.98 C 86.71 98.87 83.57 94.10 79.18 91.73 C 78.78 88.94 78.39 86.15 78.01 83.36 C 79.34 83.09 80.66 82.83 81.99 82.57 C 81.57 77.99 81.03 73.41 80.70 68.82 Z" />
<path fill="#4d7bbb" opacity="1.00" d=" M 102.28 102.29 C 106.50 101.59 110.74 100.71 115.04 100.96 C 122.39 101.22 129.28 104.04 136.37 105.65 C 141.83 107.03 147.24 104.48 152.74 105.02 C 153.02 107.21 153.36 109.39 153.78 111.56 C 154.33 115.03 155.19 118.66 154.15 122.13 C 152.96 125.98 150.80 129.42 148.90 132.94 C 133.66 133.05 118.43 132.84 103.19 133.05 C 105.13 126.59 105.52 119.77 104.94 113.08 C 104.32 109.42 103.04 105.92 102.28 102.29 Z" />
</g>
<g id="#315381ff">
<path fill="#315381" opacity="1.00" d=" M 167.29 81.19 C 168.41 80.90 169.27 81.24 169.87 82.23 C 169.63 86.51 168.06 90.58 167.35 94.79 C 168.87 95.28 170.40 95.78 171.93 96.28 C 169.61 108.55 166.30 120.62 163.73 132.84 C 158.79 133.12 153.84 133.04 148.90 132.94 C 150.80 129.42 152.96 125.98 154.15 122.13 C 155.19 118.66 154.33 115.03 153.78 111.56 C 156.70 105.95 157.28 99.53 159.11 93.54 C 160.62 93.67 162.14 93.80 163.65 93.93 C 164.66 89.64 165.34 85.19 167.29 81.19 Z" />
<path fill="#315381" opacity="1.00" d=" M 75.90 91.24 C 76.99 91.38 78.09 91.54 79.18 91.73 C 83.57 94.10 86.71 98.87 86.20 103.98 C 86.46 107.88 81.71 110.26 82.73 114.23 C 83.43 120.77 86.14 126.83 88.15 133.03 C 85.41 132.76 82.12 133.71 79.74 132.23 C 77.35 127.96 76.56 122.98 74.45 118.57 C 74.06 117.57 73.69 116.57 73.35 115.56 C 68.67 114.24 63.91 111.39 62.58 106.39 C 60.65 102.30 63.02 98.00 65.27 94.62 C 67.13 97.71 67.76 101.34 69.51 104.48 C 70.33 106.19 72.57 105.68 74.09 106.06 C 76.54 105.88 78.71 103.67 78.41 101.16 C 77.89 97.78 76.71 94.55 75.90 91.24 Z" />
</g>
</svg>
